<svg aria-hidden="true" style="position: absolute; width: 0; height: 0; overflow: hidden;" version="1.1"
    xmlns="http://www.w3.org/2000/svg" xmlns:xlink="http://www.w3.org/1999/xlink">
    <symbol id="icon-github" viewBox="0 0 24 24">
        <path
            d="M12 .297c-6.63 0-12 5.373-12 12 0 5.303 3.438 9.8 8.205 11.385.6.113.82-.258.82-.577 0-.285-.01-1.04-.015-2.04-3.338.724-4.042-1.61-4.042-1.61C4.422 18.07 3.633 17.7 3.633 17.7c-1.087-.744.084-.729.084-.729 1.205.084 1.838 1.236 1.838 1.236 1.07 1.835 2.809 1.305 3.495.998.108-.776.417-1.305.76-1.605-2.665-.3-5.466-1.332-5.466-5.93 0-1.31.465-2.38 1.235-3.22-.135-.303-.54-1.523.105-3.176 0 0 1.005-.322 3.3 1.23.96-.267 1.98-.399 3-.405 1.02.006 2.04.138 3 .405 2.28-1.552 3.285-1.23 3.285-1.23.645 1.653.24 2.873.12 3.176.765.84 1.23 1.91 1.23 3.22 0 4.61-2.805 5.625-5.475 5.92.42.36.81 1.096.81 2.22 0 1.606-.015 2.896-.015 3.286 0 .315.21.69.825.57C20.565 22.092 24 17.592 24 12.297c0-6.627-5.373-12-12-12" />
    </symbol>
    <symbol id="icon-pinterest" viewBox="0 0 24 24">
        <path
            d="M12.017 0C5.396 0 .029 5.367.029 11.987c0 5.079 3.158 9.417 7.618 11.162-.105-.949-.199-2.403.041-3.439.219-.937 1.406-5.957 1.406-5.957s-.359-.72-.359-1.781c0-1.663.967-2.911 2.168-2.911 1.024 0 1.518.769 1.518 1.688 0 1.029-.653 2.567-.992 3.992-.285 1.193.6 2.165 1.775 2.165 2.128 0 3.768-2.245 3.768-5.487 0-2.861-2.063-4.869-5.008-4.869-3.41 0-5.409 2.562-5.409 5.199 0 1.033.394 2.143.889 2.741.099.12.112.225.085.345-.09.375-.293 1.199-.334 1.363-.053.225-.172.271-.401.165-1.495-.69-2.433-2.878-2.433-4.646 0-3.776 2.748-7.252 7.92-7.252 4.158 0 7.392 2.967 7.392 6.923 0 4.135-2.607 7.462-6.233 7.462-1.214 0-2.354-.629-2.758-1.379l-.749 2.848c-.269 1.045-1.004 2.352-1.498 3.146 1.123.345 2.306.535 3.55.535 6.607 0 11.985-5.365 11.985-11.987C23.97 5.39 18.592.026 11.985.026L12.017 0z" />
    </symbol>
    <symbol id="icon-soundcloud" viewBox="0 0 24 24">
        <path
            d="M1.175 12.225c-.051 0-.094.046-.101.1l-.233 2.154.233 2.105c.007.058.05.098.101.098.05 0 .09-.04.099-.098l.255-2.105-.27-2.154c0-.057-.045-.1-.09-.1m-.899.828c-.06 0-.091.037-.104.094L0 14.479l.165 1.308c0 .055.045.094.09.094s.089-.045.104-.104l.21-1.319-.21-1.334c0-.061-.044-.09-.09-.09m1.83-1.229c-.061 0-.12.045-.12.104l-.21 2.563.225 2.458c0 .06.045.12.119.12.061 0 .105-.061.121-.12l.254-2.474-.254-2.548c-.016-.06-.061-.12-.121-.12m.945-.089c-.075 0-.135.06-.15.135l-.193 2.64.21 2.544c.016.077.075.138.149.138.075 0 .135-.061.15-.15l.24-2.532-.24-2.623c0-.075-.06-.135-.135-.135l-.031-.017zm1.155.36c-.005-.09-.075-.149-.159-.149-.09 0-.158.06-.164.149l-.217 2.43.2 2.563c0 .09.075.157.159.157.074 0 .148-.068.148-.158l.227-2.563-.227-2.444.033.015zm.809-1.709c-.101 0-.18.09-.18.181l-.21 3.957.187 2.563c0 .09.08.164.18.164.094 0 .174-.09.18-.18l.209-2.563-.209-3.972c-.008-.104-.088-.18-.18-.18m.959-.914c-.105 0-.195.09-.203.194l-.18 4.872.165 2.548c0 .12.09.209.195.209.104 0 .194-.089.21-.209l.193-2.548-.192-4.856c-.016-.12-.105-.21-.21-.21m.989-.449c-.121 0-.211.089-.225.209l-.165 5.275.165 2.52c.014.119.104.225.225.225.119 0 .225-.105.225-.225l.195-2.52-.196-5.275c0-.12-.105-.225-.225-.225m1.245.045c0-.135-.105-.24-.24-.24-.119 0-.24.105-.24.24l-.149 5.441.149 2.503c.016.135.121.24.256.24s.24-.105.24-.24l.164-2.503-.164-5.456-.016.015zm.749-.134c-.135 0-.255.119-.255.254l-.15 5.322.15 2.473c0 .15.12.255.255.255s.255-.12.255-.27l.15-2.474-.165-5.307c0-.148-.12-.27-.271-.27m1.005.166c-.164 0-.284.135-.284.285l-.103 5.143.135 2.474c0 .149.119.277.284.277.149 0 .271-.12.284-.285l.121-2.443-.135-5.112c-.012-.164-.135-.285-.285-.285m1.184-.945c-.045-.029-.105-.044-.165-.044s-.119.015-.165.044c-.09.054-.149.15-.149.255v.061l-.104 6.048.115 2.449v.008c.008.06.03.135.074.18.058.061.142.104.234.104.08 0 .158-.044.209-.09.058-.06.091-.135.091-.225l.015-.24.117-2.203-.135-6.086c0-.104-.061-.193-.135-.239l-.002-.022zm1.006-.547c-.045-.045-.09-.061-.15-.061-.074 0-.149.016-.209.061-.075.061-.119.15-.119.24v.029l-.137 6.609.076 1.215.061 1.185c0 .164.148.314.328.314.181 0 .33-.15.33-.329l.15-2.414-.15-6.637c0-.12-.074-.221-.165-.277m8.934 3.777c-.405 0-.795.086-1.139.232-.24-2.654-2.46-4.736-5.188-4.736-.659 0-1.305.135-1.889.359-.225.09-.27.18-.285.359v9.368c.016.18.15.33.33.345h8.185C22.681 17.218 24 15.914 24 14.28s-1.319-2.952-2.938-2.952" />
    </symbol>
    <symbol id="icon-telegram" viewBox="0 0 24 24">
        <path
            d="M11.944 0A12 12 0 0 0 0 12a12 12 0 0 0 12 12 12 12 0 0 0 12-12A12 12 0 0 0 12 0a12 12 0 0 0-.056 0zm4.962 7.224c.1-.002.321.023.465.14a.506.506 0 0 1 .171.325c.016.093.036.306.02.472-.18 1.898-.962 6.502-1.36 8.627-.168.9-.499 1.201-.82 1.23-.696.065-1.225-.46-1.9-.902-1.056-.693-1.653-1.124-2.678-1.8-1.185-.78-.417-1.21.258-1.91.177-.184 3.247-2.977 3.307-3.23.007-.032.014-.15-.056-.212s-.174-.041-.249-.024c-.106.024-1.793 1.14-5.061 3.345-.48.33-.913.49-1.302.48-.428-.008-1.252-.241-1.865-.44-.752-.245-1.349-.374-1.297-.789.027-.216.325-.437.893-.663 3.498-1.524 5.83-2.529 6.998-3.014 3.332-1.386 4.025-1.627 4.476-1.635z" />
    </symbol>
    <symbol id="icon-twitch" viewBox="0 0 24 24">
        <path
            d="M11.571 4.714h1.715v5.143H11.57zm4.715 0H18v5.143h-1.714zM6 0L1.714 4.286v15.428h5.143V24l4.286-4.286h3.428L22.286 12V0zm14.571 11.143l-3.428 3.428h-3.429l-3 3v-3H6.857V1.714h13.714Z" />
    </symbol>
    <symbol id="icon-youtube" viewBox="0 0 24 24">
        <path
            d="M23.498 6.186a3.016 3.016 0 0 0-2.122-2.136C19.505 3.545 12 3.545 12 3.545s-7.505 0-9.377.505A3.017 3.017 0 0 0 .502 6.186C0 8.07 0 12 0 12s0 3.93.502 5.814a3.016 3.016 0 0 0 2.122 2.136c1.871.505 9.376.505 9.376.505s7.505 0 9.377-.505a3.015 3.015 0 0 0 2.122-2.136C24 15.93 24 12 24 12s0-3.93-.502-5.814zM9.545 15.568V8.432L15.818 12l-6.273 3.568z" />
    </symbol>
    <symbol id="icon-youtube-music" viewBox="0 0 24 24">
        <path
            d="M12 0C5.376 0 0 5.376 0 12s5.376 12 12 12 12-5.376 12-12S18.624 0 12 0zm0 19.104c-3.924 0-7.104-3.18-7.104-7.104S8.076 4.896 12 4.896s7.104 3.18 7.104 7.104-3.18 7.104-7.104 7.104zm0-13.332c-3.432 0-6.228 2.796-6.228 6.228S8.568 18.228 12 18.228s6.228-2.796 6.228-6.228S15.432 5.772 12 5.772zM9.684 15.54V8.46L15.816 12l-6.132 3.54z" />
    </symbol>
    <symbol id="icon-steam" viewBox="0 0 24 24">
        <path
            d="M11.979 0C5.678 0 .511 4.86.022 11.037l6.432 2.658c.545-.371 1.203-.59 1.912-.59.063 0 .125.004.188.006l2.861-4.142V8.91c0-2.495 2.028-4.524 4.524-4.524 2.494 0 4.524 2.031 4.524 4.527s-2.03 4.525-4.524 4.525h-.105l-4.076 2.911c0 .052.004.105.004.159 0 1.875-1.515 3.396-3.39 3.396-1.635 0-3.016-1.173-3.331-2.727L.436 15.27C1.862 20.307 6.486 24 11.979 24c6.627 0 11.999-5.373 11.999-12S18.605 0 11.979 0zM7.54 18.21l-1.473-.61c.262.543.714.999 1.314 1.25 1.297.539 2.793-.076 3.332-1.375.263-.63.264-1.319.005-1.949s-.75-1.121-1.377-1.383c-.624-.26-1.29-.249-1.878-.03l1.523.63c.956.4 1.409 1.5 1.009 2.455-.397.957-1.497 1.41-2.454 1.012H7.54zm11.415-9.303c0-1.662-1.353-3.015-3.015-3.015-1.665 0-3.015 1.353-3.015 3.015 0 1.665 1.35 3.015 3.015 3.015 1.663 0 3.015-1.35 3.015-3.015zm-5.273-.005c0-1.252 1.013-2.266 2.265-2.266 1.249 0 2.266 1.014 2.266 2.266 0 1.251-1.017 2.265-2.266 2.265-1.253 0-2.265-1.014-2.265-2.265z" />
    </symbol>
    <symbol id="icon-facebook" viewBox="0 0 24 24">
        <path
            d="M24 12.073c0-6.627-5.373-12-12-12s-12 5.373-12 12c0 5.99 4.388 10.954 10.125 11.854v-8.385H7.078v-3.47h3.047V9.43c0-3.007 1.792-4.669 4.533-4.669 1.312 0 2.686.235 2.686.235v2.953H15.83c-1.491 0-1.956.925-1.956 1.874v2.25h3.328l-.532 3.47h-2.796v8.385C19.612 23.027 24 18.062 24 12.073z" />
    </symbol>
    <symbol id="icon-twitter" viewBox="0 0 24 24">
        <path
            d="M21.543 7.104c.015.211.015.423.015.636 0 6.507-4.954 14.01-14.01 14.01v-.003A13.94 13.94 0 0 1 0 19.539a9.88 9.88 0 0 0 7.287-2.041 4.93 4.93 0 0 1-4.6-3.42 4.916 4.916 0 0 0 2.223-.084A4.926 4.926 0 0 1 .96 9.167v-.062a4.887 4.887 0 0 0 2.235.616A4.928 4.928 0 0 1 1.67 3.148 13.98 13.98 0 0 0 11.82 8.292a4.929 4.929 0 0 1 8.39-4.49 9.868 9.868 0 0 0 3.128-1.196 4.941 4.941 0 0 1-2.165 2.724A9.828 9.828 0 0 0 24 4.555a10.019 10.019 0 0 1-2.457 2.549z" />
    </symbol>
    <symbol id="icon-webdev" viewBox="0 0 24 24">
        <path
            d="M0.625 19.9489C0.625 18.2638 1.99102 16.8977 3.67614 16.8977H19.9489C21.634 16.8977 23 18.2638 23 19.9489C23 21.634 21.634 23 19.9489 23H3.67614C1.99102 23 0.625 21.634 0.625 19.9489Z"
            fill="#e3e0e6"></path>
        <path
            d="M1.51866 1.51866C2.7102 0.327114 4.64208 0.327114 5.83361 1.51866L13.97 9.65503C15.1615 10.8466 15.1615 12.7784 13.97 13.97L5.83361 22.1063C4.64208 23.2979 2.7102 23.2979 1.51866 22.1063C0.327114 20.9148 0.327114 18.9829 1.51866 17.7914L7.13797 12.1721C7.33655 11.9735 7.33655 11.6515 7.13797 11.4529L1.51866 5.83361C0.327114 4.64208 0.327114 2.7102 1.51866 1.51866Z"
            clip-rule="evenodd" fill="#716282" fill-rule="evenodd"></path>
        <path
            d="M11.0422 16.8977L5.83361 22.1063C4.64208 23.2979 2.7102 23.2979 1.51866 22.1063C0.327114 20.9148 0.327114 18.9829 1.51866 17.7914L2.41233 16.8977H11.0422Z"
            fill="#8d819b"></path>
        <path
            d="M19.9488 23C21.6339 23 23 21.634 23 19.9489C23 18.2638 21.6339 16.8977 19.9488 16.8977C18.2637 16.8977 16.8977 18.2638 16.8977 19.9489C16.8977 21.634 18.2637 23 19.9488 23Z"
            fill="#aaa1b4"></path>
    </symbol>
    <symbol id="icon-mdn" viewBox="0 0 24 24">
        <path
            d="m21.538 1.1-6.745 21.8h-2.77L18.77 1.1ZM24 1.1v21.8h-2.462V1.1Zm-12 0v21.8H9.538V1.1Zm-2.462 0L2.77 22.9H0L6.746 1.1Z"
            fill="#716282" />
    </symbol>
    <symbol id="icon-external" viewBox="0 0 32 32">
        <path
            d="M7.414 27.414l16.586-16.586v7.172c0 1.105 0.895 2 2 2s2-0.895 2-2v-12c0-0.809-0.487-1.538-1.235-1.848-0.248-0.103-0.508-0.151-0.765-0.151v-0.001h-12c-1.105 0-2 0.895-2 2s0.895 2 2 2h7.172l-16.586 16.586c-0.391 0.39-0.586 0.902-0.586 1.414s0.195 1.024 0.586 1.414c0.781 0.781 2.047 0.781 2.828 0z">
        </path>
    </symbol>
</svg>
